<mxfile host="Electron" modified="2023-05-01T00:30:35.851Z" agent="Mozilla/5.0 (X11; Linux x86_64) AppleWebKit/537.36 (KHTML, like Gecko) draw.io/21.2.1 Chrome/112.0.5615.87 Electron/24.1.2 Safari/537.36" etag="glgix06cAKLpb-WsUoRO" version="21.2.1" type="device" pages="4">
  <diagram id="nJAfVl4g5rDpcgTDIY90" name="measurement_setup1">
    <mxGraphModel dx="1267" dy="1044" grid="1" gridSize="10" guides="1" tooltips="1" connect="1" arrows="1" fold="1" page="1" pageScale="1" pageWidth="850" pageHeight="1100" math="0" shadow="0">
      <root>
        <mxCell id="0" />
        <mxCell id="1" parent="0" />
        <mxCell id="n6Zc8FONMgEtDuYc1dvL-59" value="" style="rounded=0;whiteSpace=wrap;html=1;fillColor=none;strokeColor=none;" parent="1" vertex="1">
          <mxGeometry x="160" y="240" width="1120" height="420" as="geometry" />
        </mxCell>
        <mxCell id="n6Zc8FONMgEtDuYc1dvL-57" value="" style="rounded=1;whiteSpace=wrap;html=1;fillColor=none;" parent="1" vertex="1">
          <mxGeometry x="950" y="290" width="300" height="340" as="geometry" />
        </mxCell>
        <mxCell id="n6Zc8FONMgEtDuYc1dvL-39" value="" style="rounded=1;whiteSpace=wrap;html=1;fillColor=none;" parent="1" vertex="1">
          <mxGeometry x="420" y="390" width="280" height="240" as="geometry" />
        </mxCell>
        <mxCell id="n6Zc8FONMgEtDuYc1dvL-41" value="" style="rounded=1;whiteSpace=wrap;html=1;fillColor=none;" parent="1" vertex="1">
          <mxGeometry x="190" y="390" width="170" height="240" as="geometry" />
        </mxCell>
        <mxCell id="n6Zc8FONMgEtDuYc1dvL-20" value="" style="pointerEvents=1;fillColor=strokeColor;verticalLabelPosition=bottom;shadow=0;dashed=0;align=center;html=1;verticalAlign=top;shape=mxgraph.electrical.diodes.diode;rotation=-180;" parent="1" vertex="1">
          <mxGeometry x="510" y="420" width="100" height="60" as="geometry" />
        </mxCell>
        <mxCell id="n6Zc8FONMgEtDuYc1dvL-21" value="" style="pointerEvents=1;verticalLabelPosition=bottom;shadow=0;dashed=0;align=center;html=1;verticalAlign=top;shape=mxgraph.electrical.capacitors.capacitor_1;rotation=-90;" parent="1" vertex="1">
          <mxGeometry x="600" y="490" width="100" height="60" as="geometry" />
        </mxCell>
        <mxCell id="n6Zc8FONMgEtDuYc1dvL-22" value="" style="pointerEvents=1;verticalLabelPosition=bottom;shadow=0;dashed=0;align=center;html=1;verticalAlign=top;shape=mxgraph.electrical.resistors.resistor_2;rotation=-90;" parent="1" vertex="1">
          <mxGeometry x="420" y="510" width="100" height="20" as="geometry" />
        </mxCell>
        <mxCell id="n6Zc8FONMgEtDuYc1dvL-23" value="50" style="text;html=1;strokeColor=none;fillColor=none;align=center;verticalAlign=middle;whiteSpace=wrap;rounded=0;" parent="1" vertex="1">
          <mxGeometry x="470" y="510" width="40" height="20" as="geometry" />
        </mxCell>
        <mxCell id="n6Zc8FONMgEtDuYc1dvL-24" value="" style="pointerEvents=1;verticalLabelPosition=bottom;shadow=0;dashed=0;align=center;html=1;verticalAlign=top;shape=mxgraph.electrical.resistors.resistor_2;rotation=-180;" parent="1" vertex="1">
          <mxGeometry x="260" y="440" width="100" height="20" as="geometry" />
        </mxCell>
        <mxCell id="n6Zc8FONMgEtDuYc1dvL-25" value="" style="pointerEvents=1;verticalLabelPosition=bottom;shadow=0;dashed=0;align=center;html=1;verticalAlign=top;shape=mxgraph.electrical.signal_sources.source;aspect=fixed;points=[[0.5,0,0],[1,0.5,0],[0.5,1,0],[0,0.5,0]];elSignalType=ac;" parent="1" vertex="1">
          <mxGeometry x="200" y="490" width="60" height="60" as="geometry" />
        </mxCell>
        <mxCell id="n6Zc8FONMgEtDuYc1dvL-26" value="50" style="text;html=1;strokeColor=none;fillColor=none;align=center;verticalAlign=middle;whiteSpace=wrap;rounded=0;" parent="1" vertex="1">
          <mxGeometry x="290" y="420" width="40" height="20" as="geometry" />
        </mxCell>
        <mxCell id="n6Zc8FONMgEtDuYc1dvL-28" value="" style="endArrow=none;html=1;entryX=1;entryY=0.5;entryDx=0;entryDy=0;entryPerimeter=0;exitX=0.5;exitY=0;exitDx=0;exitDy=0;exitPerimeter=0;" parent="1" source="n6Zc8FONMgEtDuYc1dvL-25" target="n6Zc8FONMgEtDuYc1dvL-24" edge="1">
          <mxGeometry width="50" height="50" relative="1" as="geometry">
            <mxPoint x="630" y="630" as="sourcePoint" />
            <mxPoint x="680" y="580" as="targetPoint" />
            <Array as="points">
              <mxPoint x="230" y="450" />
            </Array>
          </mxGeometry>
        </mxCell>
        <mxCell id="n6Zc8FONMgEtDuYc1dvL-31" value="" style="endArrow=none;html=1;entryX=0;entryY=0.5;entryDx=0;entryDy=0;entryPerimeter=0;exitX=0;exitY=0.5;exitDx=0;exitDy=0;exitPerimeter=0;" parent="1" source="n6Zc8FONMgEtDuYc1dvL-24" target="n6Zc8FONMgEtDuYc1dvL-20" edge="1">
          <mxGeometry width="50" height="50" relative="1" as="geometry">
            <mxPoint x="430" y="590" as="sourcePoint" />
            <mxPoint x="480" y="540" as="targetPoint" />
          </mxGeometry>
        </mxCell>
        <mxCell id="n6Zc8FONMgEtDuYc1dvL-32" value="" style="endArrow=none;html=1;entryX=1;entryY=0.5;entryDx=0;entryDy=0;entryPerimeter=0;" parent="1" target="n6Zc8FONMgEtDuYc1dvL-22" edge="1">
          <mxGeometry width="50" height="50" relative="1" as="geometry">
            <mxPoint x="470" y="450" as="sourcePoint" />
            <mxPoint x="290" y="580" as="targetPoint" />
          </mxGeometry>
        </mxCell>
        <mxCell id="n6Zc8FONMgEtDuYc1dvL-33" value="" style="endArrow=none;html=1;exitX=1;exitY=0.5;exitDx=0;exitDy=0;exitPerimeter=0;entryX=0.25;entryY=1;entryDx=0;entryDy=0;" parent="1" source="n6Zc8FONMgEtDuYc1dvL-20" edge="1" target="n6Zc8FONMgEtDuYc1dvL-54">
          <mxGeometry width="50" height="50" relative="1" as="geometry">
            <mxPoint x="660" y="350" as="sourcePoint" />
            <mxPoint x="910" y="450" as="targetPoint" />
          </mxGeometry>
        </mxCell>
        <mxCell id="n6Zc8FONMgEtDuYc1dvL-34" value="" style="endArrow=none;html=1;entryX=1;entryY=0.5;entryDx=0;entryDy=0;entryPerimeter=0;" parent="1" target="n6Zc8FONMgEtDuYc1dvL-21" edge="1">
          <mxGeometry width="50" height="50" relative="1" as="geometry">
            <mxPoint x="650" y="450" as="sourcePoint" />
            <mxPoint x="480" y="540" as="targetPoint" />
          </mxGeometry>
        </mxCell>
        <mxCell id="n6Zc8FONMgEtDuYc1dvL-35" value="" style="endArrow=none;html=1;entryX=1;entryY=0.5;entryDx=0;entryDy=0;entryPerimeter=0;" parent="1" edge="1">
          <mxGeometry width="50" height="50" relative="1" as="geometry">
            <mxPoint x="469.92" y="570" as="sourcePoint" />
            <mxPoint x="469.92" y="590" as="targetPoint" />
          </mxGeometry>
        </mxCell>
        <mxCell id="n6Zc8FONMgEtDuYc1dvL-36" value="" style="endArrow=none;html=1;entryX=0.5;entryY=1;entryDx=0;entryDy=0;entryPerimeter=0;" parent="1" target="n6Zc8FONMgEtDuYc1dvL-25" edge="1">
          <mxGeometry width="50" height="50" relative="1" as="geometry">
            <mxPoint x="470" y="590" as="sourcePoint" />
            <mxPoint x="140" y="640" as="targetPoint" />
            <Array as="points">
              <mxPoint x="230" y="590" />
            </Array>
          </mxGeometry>
        </mxCell>
        <mxCell id="n6Zc8FONMgEtDuYc1dvL-37" value="" style="endArrow=none;html=1;" parent="1" edge="1">
          <mxGeometry width="50" height="50" relative="1" as="geometry">
            <mxPoint x="470" y="590" as="sourcePoint" />
            <mxPoint x="1200" y="590" as="targetPoint" />
          </mxGeometry>
        </mxCell>
        <mxCell id="n6Zc8FONMgEtDuYc1dvL-38" value="" style="endArrow=none;html=1;entryX=1;entryY=0.5;entryDx=0;entryDy=0;entryPerimeter=0;" parent="1" edge="1">
          <mxGeometry width="50" height="50" relative="1" as="geometry">
            <mxPoint x="649.83" y="570" as="sourcePoint" />
            <mxPoint x="649.83" y="590" as="targetPoint" />
          </mxGeometry>
        </mxCell>
        <mxCell id="n6Zc8FONMgEtDuYc1dvL-42" value="RF source &lt;br&gt;AM modulation" style="text;html=1;strokeColor=none;fillColor=none;align=center;verticalAlign=middle;whiteSpace=wrap;rounded=0;" parent="1" vertex="1">
          <mxGeometry x="190" y="350" width="170" height="40" as="geometry" />
        </mxCell>
        <mxCell id="n6Zc8FONMgEtDuYc1dvL-44" value="HP 423A&lt;br&gt;crystal detector" style="text;html=1;strokeColor=none;fillColor=none;align=center;verticalAlign=middle;whiteSpace=wrap;rounded=0;" parent="1" vertex="1">
          <mxGeometry x="475" y="350" width="170" height="40" as="geometry" />
        </mxCell>
        <mxCell id="n6Zc8FONMgEtDuYc1dvL-45" value="" style="pointerEvents=1;verticalLabelPosition=bottom;shadow=0;dashed=0;align=center;html=1;verticalAlign=top;shape=mxgraph.electrical.resistors.resistor_2;rotation=-90;" parent="1" vertex="1">
          <mxGeometry x="960" y="510" width="100" height="20" as="geometry" />
        </mxCell>
        <mxCell id="n6Zc8FONMgEtDuYc1dvL-46" value="" style="endArrow=none;html=1;entryX=1;entryY=0.5;entryDx=0;entryDy=0;entryPerimeter=0;" parent="1" target="n6Zc8FONMgEtDuYc1dvL-45" edge="1">
          <mxGeometry width="50" height="50" relative="1" as="geometry">
            <mxPoint x="1010" y="450" as="sourcePoint" />
            <mxPoint x="830" y="580" as="targetPoint" />
          </mxGeometry>
        </mxCell>
        <mxCell id="n6Zc8FONMgEtDuYc1dvL-47" value="" style="endArrow=none;html=1;entryX=1;entryY=0.5;entryDx=0;entryDy=0;entryPerimeter=0;" parent="1" edge="1">
          <mxGeometry width="50" height="50" relative="1" as="geometry">
            <mxPoint x="1009.9200000000001" y="570" as="sourcePoint" />
            <mxPoint x="1009.9200000000001" y="590" as="targetPoint" />
          </mxGeometry>
        </mxCell>
        <mxCell id="n6Zc8FONMgEtDuYc1dvL-48" value="1M" style="text;html=1;strokeColor=none;fillColor=none;align=center;verticalAlign=middle;whiteSpace=wrap;rounded=0;" parent="1" vertex="1">
          <mxGeometry x="1020" y="510" width="40" height="20" as="geometry" />
        </mxCell>
        <mxCell id="n6Zc8FONMgEtDuYc1dvL-50" value="" style="endArrow=none;html=1;exitX=0.886;exitY=0.993;exitDx=0;exitDy=0;exitPerimeter=0;" parent="1" source="n6Zc8FONMgEtDuYc1dvL-55" edge="1">
          <mxGeometry width="50" height="50" relative="1" as="geometry">
            <mxPoint x="990" y="330" as="sourcePoint" />
            <mxPoint x="400" y="450" as="targetPoint" />
            <Array as="points">
              <mxPoint x="400" y="330" />
            </Array>
          </mxGeometry>
        </mxCell>
        <mxCell id="n6Zc8FONMgEtDuYc1dvL-51" value="" style="pointerEvents=1;verticalLabelPosition=bottom;shadow=0;dashed=0;align=center;html=1;verticalAlign=top;shape=mxgraph.electrical.resistors.resistor_2;rotation=-90;" parent="1" vertex="1">
          <mxGeometry x="1100" y="510" width="100" height="20" as="geometry" />
        </mxCell>
        <mxCell id="n6Zc8FONMgEtDuYc1dvL-52" value="1M" style="text;html=1;strokeColor=none;fillColor=none;align=center;verticalAlign=middle;whiteSpace=wrap;rounded=0;" parent="1" vertex="1">
          <mxGeometry x="1160" y="510" width="40" height="20" as="geometry" />
        </mxCell>
        <mxCell id="n6Zc8FONMgEtDuYc1dvL-53" value="" style="endArrow=none;html=1;entryX=1;entryY=0.5;entryDx=0;entryDy=0;entryPerimeter=0;" parent="1" edge="1">
          <mxGeometry width="50" height="50" relative="1" as="geometry">
            <mxPoint x="1149.8600000000001" y="570" as="sourcePoint" />
            <mxPoint x="1149.8600000000001" y="590" as="targetPoint" />
          </mxGeometry>
        </mxCell>
        <mxCell id="n6Zc8FONMgEtDuYc1dvL-54" value="Chan 1" style="text;html=1;strokeColor=none;fillColor=none;align=center;verticalAlign=middle;whiteSpace=wrap;rounded=0;" parent="1" vertex="1">
          <mxGeometry x="1040" y="430" width="80" height="20" as="geometry" />
        </mxCell>
        <mxCell id="n6Zc8FONMgEtDuYc1dvL-55" value="Chan 2" style="text;html=1;strokeColor=none;fillColor=none;align=center;verticalAlign=middle;whiteSpace=wrap;rounded=0;" parent="1" vertex="1">
          <mxGeometry x="1160" y="310" width="80" height="20" as="geometry" />
        </mxCell>
        <mxCell id="n6Zc8FONMgEtDuYc1dvL-56" value="" style="endArrow=none;html=1;" parent="1" edge="1">
          <mxGeometry width="50" height="50" relative="1" as="geometry">
            <mxPoint x="1150" y="330" as="sourcePoint" />
            <mxPoint x="1150" y="470" as="targetPoint" />
          </mxGeometry>
        </mxCell>
        <mxCell id="n6Zc8FONMgEtDuYc1dvL-58" value="Oscilloscope" style="text;html=1;strokeColor=none;fillColor=none;align=center;verticalAlign=middle;whiteSpace=wrap;rounded=0;" parent="1" vertex="1">
          <mxGeometry x="1025" y="250" width="170" height="40" as="geometry" />
        </mxCell>
        <mxCell id="agd8N46Cy_8cz0tkezxJ-1" value="10p" style="text;html=1;strokeColor=none;fillColor=none;align=center;verticalAlign=middle;whiteSpace=wrap;rounded=0;" vertex="1" parent="1">
          <mxGeometry x="580" y="510" width="40" height="20" as="geometry" />
        </mxCell>
        <mxCell id="agd8N46Cy_8cz0tkezxJ-2" value="" style="pointerEvents=1;verticalLabelPosition=bottom;shadow=0;dashed=0;align=center;html=1;verticalAlign=top;shape=mxgraph.electrical.capacitors.capacitor_1;rotation=-90;" vertex="1" parent="1">
          <mxGeometry x="760" y="490" width="100" height="60" as="geometry" />
        </mxCell>
        <mxCell id="agd8N46Cy_8cz0tkezxJ-3" value="210p" style="text;html=1;strokeColor=none;fillColor=none;align=center;verticalAlign=middle;whiteSpace=wrap;rounded=0;" vertex="1" parent="1">
          <mxGeometry x="740" y="510" width="40" height="20" as="geometry" />
        </mxCell>
        <mxCell id="agd8N46Cy_8cz0tkezxJ-4" value="" style="rounded=1;whiteSpace=wrap;html=1;fillColor=none;" vertex="1" parent="1">
          <mxGeometry x="730" y="390" width="160" height="240" as="geometry" />
        </mxCell>
        <mxCell id="agd8N46Cy_8cz0tkezxJ-6" value="7ft coax" style="text;html=1;strokeColor=none;fillColor=none;align=center;verticalAlign=middle;whiteSpace=wrap;rounded=0;" vertex="1" parent="1">
          <mxGeometry x="730" y="350" width="160" height="40" as="geometry" />
        </mxCell>
        <mxCell id="agd8N46Cy_8cz0tkezxJ-7" value="" style="endArrow=none;html=1;entryX=1;entryY=0.5;entryDx=0;entryDy=0;entryPerimeter=0;" edge="1" parent="1">
          <mxGeometry width="50" height="50" relative="1" as="geometry">
            <mxPoint x="809.95" y="450" as="sourcePoint" />
            <mxPoint x="809.95" y="470" as="targetPoint" />
          </mxGeometry>
        </mxCell>
        <mxCell id="agd8N46Cy_8cz0tkezxJ-8" value="" style="endArrow=none;html=1;entryX=1;entryY=0.5;entryDx=0;entryDy=0;entryPerimeter=0;" edge="1" parent="1">
          <mxGeometry width="50" height="50" relative="1" as="geometry">
            <mxPoint x="809.78" y="570" as="sourcePoint" />
            <mxPoint x="809.78" y="590" as="targetPoint" />
          </mxGeometry>
        </mxCell>
      </root>
    </mxGraphModel>
  </diagram>
  <diagram name="measurement_setup2" id="__wIRwWSOnKxe-Xeithe">
    <mxGraphModel dx="1710" dy="1409" grid="1" gridSize="10" guides="1" tooltips="1" connect="1" arrows="1" fold="1" page="1" pageScale="1" pageWidth="850" pageHeight="1100" math="0" shadow="0">
      <root>
        <mxCell id="QO79TqDzEfOroSVUwNAg-0" />
        <mxCell id="QO79TqDzEfOroSVUwNAg-1" parent="QO79TqDzEfOroSVUwNAg-0" />
        <mxCell id="QO79TqDzEfOroSVUwNAg-2" value="" style="rounded=0;whiteSpace=wrap;html=1;fillColor=none;strokeColor=none;" vertex="1" parent="QO79TqDzEfOroSVUwNAg-1">
          <mxGeometry x="170" y="240" width="1150" height="420" as="geometry" />
        </mxCell>
        <mxCell id="QO79TqDzEfOroSVUwNAg-3" value="" style="rounded=1;whiteSpace=wrap;html=1;fillColor=none;" vertex="1" parent="QO79TqDzEfOroSVUwNAg-1">
          <mxGeometry x="1000" y="290" width="300" height="340" as="geometry" />
        </mxCell>
        <mxCell id="QO79TqDzEfOroSVUwNAg-4" value="" style="rounded=1;whiteSpace=wrap;html=1;fillColor=none;" vertex="1" parent="QO79TqDzEfOroSVUwNAg-1">
          <mxGeometry x="420" y="390" width="280" height="240" as="geometry" />
        </mxCell>
        <mxCell id="QO79TqDzEfOroSVUwNAg-5" value="" style="rounded=1;whiteSpace=wrap;html=1;fillColor=none;" vertex="1" parent="QO79TqDzEfOroSVUwNAg-1">
          <mxGeometry x="190" y="390" width="170" height="240" as="geometry" />
        </mxCell>
        <mxCell id="QO79TqDzEfOroSVUwNAg-6" value="" style="pointerEvents=1;fillColor=strokeColor;verticalLabelPosition=bottom;shadow=0;dashed=0;align=center;html=1;verticalAlign=top;shape=mxgraph.electrical.diodes.diode;rotation=-180;" vertex="1" parent="QO79TqDzEfOroSVUwNAg-1">
          <mxGeometry x="510" y="420" width="100" height="60" as="geometry" />
        </mxCell>
        <mxCell id="QO79TqDzEfOroSVUwNAg-7" value="" style="pointerEvents=1;verticalLabelPosition=bottom;shadow=0;dashed=0;align=center;html=1;verticalAlign=top;shape=mxgraph.electrical.capacitors.capacitor_1;rotation=-90;" vertex="1" parent="QO79TqDzEfOroSVUwNAg-1">
          <mxGeometry x="600" y="490" width="100" height="60" as="geometry" />
        </mxCell>
        <mxCell id="QO79TqDzEfOroSVUwNAg-8" value="" style="pointerEvents=1;verticalLabelPosition=bottom;shadow=0;dashed=0;align=center;html=1;verticalAlign=top;shape=mxgraph.electrical.resistors.resistor_2;rotation=-90;" vertex="1" parent="QO79TqDzEfOroSVUwNAg-1">
          <mxGeometry x="420" y="510" width="100" height="20" as="geometry" />
        </mxCell>
        <mxCell id="QO79TqDzEfOroSVUwNAg-9" value="50" style="text;html=1;strokeColor=none;fillColor=none;align=center;verticalAlign=middle;whiteSpace=wrap;rounded=0;" vertex="1" parent="QO79TqDzEfOroSVUwNAg-1">
          <mxGeometry x="470" y="510" width="40" height="20" as="geometry" />
        </mxCell>
        <mxCell id="QO79TqDzEfOroSVUwNAg-10" value="" style="pointerEvents=1;verticalLabelPosition=bottom;shadow=0;dashed=0;align=center;html=1;verticalAlign=top;shape=mxgraph.electrical.resistors.resistor_2;rotation=-180;" vertex="1" parent="QO79TqDzEfOroSVUwNAg-1">
          <mxGeometry x="260" y="440" width="100" height="20" as="geometry" />
        </mxCell>
        <mxCell id="QO79TqDzEfOroSVUwNAg-11" value="" style="pointerEvents=1;verticalLabelPosition=bottom;shadow=0;dashed=0;align=center;html=1;verticalAlign=top;shape=mxgraph.electrical.signal_sources.source;aspect=fixed;points=[[0.5,0,0],[1,0.5,0],[0.5,1,0],[0,0.5,0]];elSignalType=ac;" vertex="1" parent="QO79TqDzEfOroSVUwNAg-1">
          <mxGeometry x="200" y="490" width="60" height="60" as="geometry" />
        </mxCell>
        <mxCell id="QO79TqDzEfOroSVUwNAg-12" value="50" style="text;html=1;strokeColor=none;fillColor=none;align=center;verticalAlign=middle;whiteSpace=wrap;rounded=0;" vertex="1" parent="QO79TqDzEfOroSVUwNAg-1">
          <mxGeometry x="290" y="420" width="40" height="20" as="geometry" />
        </mxCell>
        <mxCell id="QO79TqDzEfOroSVUwNAg-13" value="" style="endArrow=none;html=1;entryX=1;entryY=0.5;entryDx=0;entryDy=0;entryPerimeter=0;exitX=0.5;exitY=0;exitDx=0;exitDy=0;exitPerimeter=0;" edge="1" parent="QO79TqDzEfOroSVUwNAg-1" source="QO79TqDzEfOroSVUwNAg-11" target="QO79TqDzEfOroSVUwNAg-10">
          <mxGeometry width="50" height="50" relative="1" as="geometry">
            <mxPoint x="630" y="630" as="sourcePoint" />
            <mxPoint x="680" y="580" as="targetPoint" />
            <Array as="points">
              <mxPoint x="230" y="450" />
            </Array>
          </mxGeometry>
        </mxCell>
        <mxCell id="QO79TqDzEfOroSVUwNAg-14" value="" style="endArrow=none;html=1;entryX=0;entryY=0.5;entryDx=0;entryDy=0;entryPerimeter=0;exitX=0;exitY=0.5;exitDx=0;exitDy=0;exitPerimeter=0;" edge="1" parent="QO79TqDzEfOroSVUwNAg-1" source="QO79TqDzEfOroSVUwNAg-10" target="QO79TqDzEfOroSVUwNAg-6">
          <mxGeometry width="50" height="50" relative="1" as="geometry">
            <mxPoint x="430" y="590" as="sourcePoint" />
            <mxPoint x="480" y="540" as="targetPoint" />
          </mxGeometry>
        </mxCell>
        <mxCell id="QO79TqDzEfOroSVUwNAg-15" value="" style="endArrow=none;html=1;entryX=1;entryY=0.5;entryDx=0;entryDy=0;entryPerimeter=0;" edge="1" parent="QO79TqDzEfOroSVUwNAg-1" target="QO79TqDzEfOroSVUwNAg-8">
          <mxGeometry width="50" height="50" relative="1" as="geometry">
            <mxPoint x="470" y="450" as="sourcePoint" />
            <mxPoint x="290" y="580" as="targetPoint" />
          </mxGeometry>
        </mxCell>
        <mxCell id="QO79TqDzEfOroSVUwNAg-16" value="" style="endArrow=none;html=1;exitX=1;exitY=0.5;exitDx=0;exitDy=0;exitPerimeter=0;entryX=0.25;entryY=1;entryDx=0;entryDy=0;" edge="1" parent="QO79TqDzEfOroSVUwNAg-1" source="QO79TqDzEfOroSVUwNAg-6" target="QO79TqDzEfOroSVUwNAg-32">
          <mxGeometry width="50" height="50" relative="1" as="geometry">
            <mxPoint x="660" y="350" as="sourcePoint" />
            <mxPoint x="910" y="450" as="targetPoint" />
          </mxGeometry>
        </mxCell>
        <mxCell id="QO79TqDzEfOroSVUwNAg-17" value="" style="endArrow=none;html=1;entryX=1;entryY=0.5;entryDx=0;entryDy=0;entryPerimeter=0;" edge="1" parent="QO79TqDzEfOroSVUwNAg-1" target="QO79TqDzEfOroSVUwNAg-7">
          <mxGeometry width="50" height="50" relative="1" as="geometry">
            <mxPoint x="650" y="450" as="sourcePoint" />
            <mxPoint x="480" y="540" as="targetPoint" />
          </mxGeometry>
        </mxCell>
        <mxCell id="QO79TqDzEfOroSVUwNAg-18" value="" style="endArrow=none;html=1;entryX=1;entryY=0.5;entryDx=0;entryDy=0;entryPerimeter=0;" edge="1" parent="QO79TqDzEfOroSVUwNAg-1">
          <mxGeometry width="50" height="50" relative="1" as="geometry">
            <mxPoint x="469.92" y="570" as="sourcePoint" />
            <mxPoint x="469.92" y="590" as="targetPoint" />
          </mxGeometry>
        </mxCell>
        <mxCell id="QO79TqDzEfOroSVUwNAg-19" value="" style="endArrow=none;html=1;entryX=0.5;entryY=1;entryDx=0;entryDy=0;entryPerimeter=0;" edge="1" parent="QO79TqDzEfOroSVUwNAg-1" target="QO79TqDzEfOroSVUwNAg-11">
          <mxGeometry width="50" height="50" relative="1" as="geometry">
            <mxPoint x="470" y="590" as="sourcePoint" />
            <mxPoint x="140" y="640" as="targetPoint" />
            <Array as="points">
              <mxPoint x="230" y="590" />
            </Array>
          </mxGeometry>
        </mxCell>
        <mxCell id="QO79TqDzEfOroSVUwNAg-20" value="" style="endArrow=none;html=1;" edge="1" parent="QO79TqDzEfOroSVUwNAg-1">
          <mxGeometry width="50" height="50" relative="1" as="geometry">
            <mxPoint x="470" y="590" as="sourcePoint" />
            <mxPoint x="1240" y="590" as="targetPoint" />
          </mxGeometry>
        </mxCell>
        <mxCell id="QO79TqDzEfOroSVUwNAg-21" value="" style="endArrow=none;html=1;entryX=1;entryY=0.5;entryDx=0;entryDy=0;entryPerimeter=0;" edge="1" parent="QO79TqDzEfOroSVUwNAg-1">
          <mxGeometry width="50" height="50" relative="1" as="geometry">
            <mxPoint x="649.83" y="570" as="sourcePoint" />
            <mxPoint x="649.83" y="590" as="targetPoint" />
          </mxGeometry>
        </mxCell>
        <mxCell id="QO79TqDzEfOroSVUwNAg-22" value="RF source &lt;br&gt;AM modulation" style="text;html=1;strokeColor=none;fillColor=none;align=center;verticalAlign=middle;whiteSpace=wrap;rounded=0;" vertex="1" parent="QO79TqDzEfOroSVUwNAg-1">
          <mxGeometry x="190" y="350" width="170" height="40" as="geometry" />
        </mxCell>
        <mxCell id="QO79TqDzEfOroSVUwNAg-23" value="HP 423A&lt;br&gt;crystal detector" style="text;html=1;strokeColor=none;fillColor=none;align=center;verticalAlign=middle;whiteSpace=wrap;rounded=0;" vertex="1" parent="QO79TqDzEfOroSVUwNAg-1">
          <mxGeometry x="475" y="350" width="170" height="40" as="geometry" />
        </mxCell>
        <mxCell id="QO79TqDzEfOroSVUwNAg-24" value="" style="pointerEvents=1;verticalLabelPosition=bottom;shadow=0;dashed=0;align=center;html=1;verticalAlign=top;shape=mxgraph.electrical.resistors.resistor_2;rotation=-90;" vertex="1" parent="QO79TqDzEfOroSVUwNAg-1">
          <mxGeometry x="1020" y="510" width="100" height="20" as="geometry" />
        </mxCell>
        <mxCell id="QO79TqDzEfOroSVUwNAg-25" value="" style="endArrow=none;html=1;entryX=1;entryY=0.5;entryDx=0;entryDy=0;entryPerimeter=0;" edge="1" parent="QO79TqDzEfOroSVUwNAg-1" target="QO79TqDzEfOroSVUwNAg-24">
          <mxGeometry width="50" height="50" relative="1" as="geometry">
            <mxPoint x="1070" y="450" as="sourcePoint" />
            <mxPoint x="890" y="580" as="targetPoint" />
          </mxGeometry>
        </mxCell>
        <mxCell id="QO79TqDzEfOroSVUwNAg-26" value="" style="endArrow=none;html=1;entryX=1;entryY=0.5;entryDx=0;entryDy=0;entryPerimeter=0;" edge="1" parent="QO79TqDzEfOroSVUwNAg-1">
          <mxGeometry width="50" height="50" relative="1" as="geometry">
            <mxPoint x="1069.92" y="570" as="sourcePoint" />
            <mxPoint x="1069.92" y="590" as="targetPoint" />
          </mxGeometry>
        </mxCell>
        <mxCell id="QO79TqDzEfOroSVUwNAg-27" value="1M" style="text;html=1;strokeColor=none;fillColor=none;align=center;verticalAlign=middle;whiteSpace=wrap;rounded=0;" vertex="1" parent="QO79TqDzEfOroSVUwNAg-1">
          <mxGeometry x="1080" y="510" width="40" height="20" as="geometry" />
        </mxCell>
        <mxCell id="QO79TqDzEfOroSVUwNAg-28" value="" style="endArrow=none;html=1;exitX=0.886;exitY=0.993;exitDx=0;exitDy=0;exitPerimeter=0;" edge="1" parent="QO79TqDzEfOroSVUwNAg-1" source="QO79TqDzEfOroSVUwNAg-33">
          <mxGeometry width="50" height="50" relative="1" as="geometry">
            <mxPoint x="990" y="330" as="sourcePoint" />
            <mxPoint x="400" y="450" as="targetPoint" />
            <Array as="points">
              <mxPoint x="400" y="330" />
            </Array>
          </mxGeometry>
        </mxCell>
        <mxCell id="QO79TqDzEfOroSVUwNAg-29" value="" style="pointerEvents=1;verticalLabelPosition=bottom;shadow=0;dashed=0;align=center;html=1;verticalAlign=top;shape=mxgraph.electrical.resistors.resistor_2;rotation=-90;" vertex="1" parent="QO79TqDzEfOroSVUwNAg-1">
          <mxGeometry x="1160" y="510" width="100" height="20" as="geometry" />
        </mxCell>
        <mxCell id="QO79TqDzEfOroSVUwNAg-30" value="1M" style="text;html=1;strokeColor=none;fillColor=none;align=center;verticalAlign=middle;whiteSpace=wrap;rounded=0;" vertex="1" parent="QO79TqDzEfOroSVUwNAg-1">
          <mxGeometry x="1220" y="510" width="40" height="20" as="geometry" />
        </mxCell>
        <mxCell id="QO79TqDzEfOroSVUwNAg-31" value="" style="endArrow=none;html=1;entryX=1;entryY=0.5;entryDx=0;entryDy=0;entryPerimeter=0;" edge="1" parent="QO79TqDzEfOroSVUwNAg-1">
          <mxGeometry width="50" height="50" relative="1" as="geometry">
            <mxPoint x="1209.8600000000001" y="570" as="sourcePoint" />
            <mxPoint x="1209.8600000000001" y="590" as="targetPoint" />
          </mxGeometry>
        </mxCell>
        <mxCell id="QO79TqDzEfOroSVUwNAg-32" value="Chan 1" style="text;html=1;strokeColor=none;fillColor=none;align=center;verticalAlign=middle;whiteSpace=wrap;rounded=0;" vertex="1" parent="QO79TqDzEfOroSVUwNAg-1">
          <mxGeometry x="1100" y="430" width="80" height="20" as="geometry" />
        </mxCell>
        <mxCell id="QO79TqDzEfOroSVUwNAg-33" value="Chan 2" style="text;html=1;strokeColor=none;fillColor=none;align=center;verticalAlign=middle;whiteSpace=wrap;rounded=0;" vertex="1" parent="QO79TqDzEfOroSVUwNAg-1">
          <mxGeometry x="1220" y="310" width="80" height="20" as="geometry" />
        </mxCell>
        <mxCell id="QO79TqDzEfOroSVUwNAg-34" value="" style="endArrow=none;html=1;" edge="1" parent="QO79TqDzEfOroSVUwNAg-1">
          <mxGeometry width="50" height="50" relative="1" as="geometry">
            <mxPoint x="1210" y="330" as="sourcePoint" />
            <mxPoint x="1210" y="470" as="targetPoint" />
          </mxGeometry>
        </mxCell>
        <mxCell id="QO79TqDzEfOroSVUwNAg-35" value="Oscilloscope" style="text;html=1;strokeColor=none;fillColor=none;align=center;verticalAlign=middle;whiteSpace=wrap;rounded=0;" vertex="1" parent="QO79TqDzEfOroSVUwNAg-1">
          <mxGeometry x="1085" y="250" width="170" height="40" as="geometry" />
        </mxCell>
        <mxCell id="QO79TqDzEfOroSVUwNAg-36" value="10p" style="text;html=1;strokeColor=none;fillColor=none;align=center;verticalAlign=middle;whiteSpace=wrap;rounded=0;" vertex="1" parent="QO79TqDzEfOroSVUwNAg-1">
          <mxGeometry x="580" y="510" width="40" height="20" as="geometry" />
        </mxCell>
        <mxCell id="QO79TqDzEfOroSVUwNAg-37" value="" style="pointerEvents=1;verticalLabelPosition=bottom;shadow=0;dashed=0;align=center;html=1;verticalAlign=top;shape=mxgraph.electrical.capacitors.capacitor_1;rotation=-90;" vertex="1" parent="QO79TqDzEfOroSVUwNAg-1">
          <mxGeometry x="860" y="490" width="100" height="60" as="geometry" />
        </mxCell>
        <mxCell id="QO79TqDzEfOroSVUwNAg-38" value="210p" style="text;html=1;strokeColor=none;fillColor=none;align=center;verticalAlign=middle;whiteSpace=wrap;rounded=0;" vertex="1" parent="QO79TqDzEfOroSVUwNAg-1">
          <mxGeometry x="840" y="510" width="40" height="20" as="geometry" />
        </mxCell>
        <mxCell id="QO79TqDzEfOroSVUwNAg-39" value="" style="rounded=1;whiteSpace=wrap;html=1;fillColor=none;" vertex="1" parent="QO79TqDzEfOroSVUwNAg-1">
          <mxGeometry x="830" y="390" width="150" height="240" as="geometry" />
        </mxCell>
        <mxCell id="QO79TqDzEfOroSVUwNAg-40" value="7ft coax" style="text;html=1;strokeColor=none;fillColor=none;align=center;verticalAlign=middle;whiteSpace=wrap;rounded=0;" vertex="1" parent="QO79TqDzEfOroSVUwNAg-1">
          <mxGeometry x="830" y="350" width="150" height="40" as="geometry" />
        </mxCell>
        <mxCell id="QO79TqDzEfOroSVUwNAg-41" value="" style="endArrow=none;html=1;entryX=1;entryY=0.5;entryDx=0;entryDy=0;entryPerimeter=0;" edge="1" parent="QO79TqDzEfOroSVUwNAg-1">
          <mxGeometry width="50" height="50" relative="1" as="geometry">
            <mxPoint x="909.95" y="450" as="sourcePoint" />
            <mxPoint x="909.95" y="470" as="targetPoint" />
          </mxGeometry>
        </mxCell>
        <mxCell id="QO79TqDzEfOroSVUwNAg-42" value="" style="endArrow=none;html=1;entryX=1;entryY=0.5;entryDx=0;entryDy=0;entryPerimeter=0;" edge="1" parent="QO79TqDzEfOroSVUwNAg-1">
          <mxGeometry width="50" height="50" relative="1" as="geometry">
            <mxPoint x="909.78" y="570" as="sourcePoint" />
            <mxPoint x="909.78" y="590" as="targetPoint" />
          </mxGeometry>
        </mxCell>
        <mxCell id="eMr8AMUgsLzYrz75Ng8q-0" value="" style="pointerEvents=1;verticalLabelPosition=bottom;shadow=0;dashed=0;align=center;html=1;verticalAlign=top;shape=mxgraph.electrical.resistors.resistor_2;rotation=-90;strokeWidth=3;" vertex="1" parent="QO79TqDzEfOroSVUwNAg-1">
          <mxGeometry x="715" y="510" width="100" height="20" as="geometry" />
        </mxCell>
        <mxCell id="eMr8AMUgsLzYrz75Ng8q-1" value="" style="endArrow=none;html=1;entryX=1;entryY=0.5;entryDx=0;entryDy=0;entryPerimeter=0;" edge="1" parent="QO79TqDzEfOroSVUwNAg-1" target="eMr8AMUgsLzYrz75Ng8q-0">
          <mxGeometry width="50" height="50" relative="1" as="geometry">
            <mxPoint x="765" y="450" as="sourcePoint" />
            <mxPoint x="585" y="580" as="targetPoint" />
          </mxGeometry>
        </mxCell>
        <mxCell id="eMr8AMUgsLzYrz75Ng8q-2" value="" style="endArrow=none;html=1;entryX=1;entryY=0.5;entryDx=0;entryDy=0;entryPerimeter=0;" edge="1" parent="QO79TqDzEfOroSVUwNAg-1">
          <mxGeometry width="50" height="50" relative="1" as="geometry">
            <mxPoint x="764.9200000000001" y="570" as="sourcePoint" />
            <mxPoint x="764.9200000000001" y="590" as="targetPoint" />
          </mxGeometry>
        </mxCell>
        <mxCell id="eMr8AMUgsLzYrz75Ng8q-4" value="" style="rounded=1;whiteSpace=wrap;html=1;fillColor=none;" vertex="1" parent="QO79TqDzEfOroSVUwNAg-1">
          <mxGeometry x="725" y="390" width="80" height="240" as="geometry" />
        </mxCell>
        <mxCell id="eMr8AMUgsLzYrz75Ng8q-3" value="HP 11523A&lt;br&gt;Load Resistor" style="text;html=1;strokeColor=none;fillColor=none;align=center;verticalAlign=middle;whiteSpace=wrap;rounded=0;" vertex="1" parent="QO79TqDzEfOroSVUwNAg-1">
          <mxGeometry x="720" y="350" width="90" height="40" as="geometry" />
        </mxCell>
      </root>
    </mxGraphModel>
  </diagram>
  <diagram id="lVzUNco6N4TBOLnwrilA" name="ideal_diode">
    <mxGraphModel dx="3130" dy="1879" grid="1" gridSize="10" guides="1" tooltips="1" connect="1" arrows="1" fold="1" page="1" pageScale="1" pageWidth="850" pageHeight="1100" math="0" shadow="0">
      <root>
        <mxCell id="0" />
        <mxCell id="1" parent="0" />
        <mxCell id="UIueMPQgcCV-1Kfn6hbr-1" value="" style="endArrow=classic;html=1;rounded=0;" edge="1" parent="1">
          <mxGeometry width="50" height="50" relative="1" as="geometry">
            <mxPoint x="-40" y="400" as="sourcePoint" />
            <mxPoint x="280" y="400" as="targetPoint" />
          </mxGeometry>
        </mxCell>
        <mxCell id="UIueMPQgcCV-1Kfn6hbr-2" value="" style="endArrow=classic;html=1;rounded=0;" edge="1" parent="1">
          <mxGeometry width="50" height="50" relative="1" as="geometry">
            <mxPoint x="120" y="440" as="sourcePoint" />
            <mxPoint x="120" y="200" as="targetPoint" />
          </mxGeometry>
        </mxCell>
        <mxCell id="UIueMPQgcCV-1Kfn6hbr-3" value="Vd" style="text;html=1;strokeColor=none;fillColor=none;align=center;verticalAlign=middle;whiteSpace=wrap;rounded=0;" vertex="1" parent="1">
          <mxGeometry x="220" y="400" width="60" height="30" as="geometry" />
        </mxCell>
        <mxCell id="UIueMPQgcCV-1Kfn6hbr-4" value="I" style="text;html=1;strokeColor=none;fillColor=none;align=center;verticalAlign=middle;whiteSpace=wrap;rounded=0;" vertex="1" parent="1">
          <mxGeometry x="100" y="200" width="20" height="30" as="geometry" />
        </mxCell>
        <mxCell id="UIueMPQgcCV-1Kfn6hbr-6" value="" style="endArrow=none;html=1;rounded=0;strokeColor=#FF0000;strokeWidth=5;" edge="1" parent="1">
          <mxGeometry width="50" height="50" relative="1" as="geometry">
            <mxPoint y="400" as="sourcePoint" />
            <mxPoint x="120" y="400" as="targetPoint" />
          </mxGeometry>
        </mxCell>
        <mxCell id="UIueMPQgcCV-1Kfn6hbr-7" value="" style="endArrow=none;html=1;rounded=0;strokeColor=#FF0000;strokeWidth=5;" edge="1" parent="1">
          <mxGeometry width="50" height="50" relative="1" as="geometry">
            <mxPoint x="120" y="240" as="sourcePoint" />
            <mxPoint x="120" y="400" as="targetPoint" />
          </mxGeometry>
        </mxCell>
        <mxCell id="UIueMPQgcCV-1Kfn6hbr-8" value="Ideal Diode - No Threshold" style="text;html=1;strokeColor=none;fillColor=none;align=center;verticalAlign=middle;whiteSpace=wrap;rounded=0;" vertex="1" parent="1">
          <mxGeometry y="440" width="240" height="30" as="geometry" />
        </mxCell>
        <mxCell id="UIueMPQgcCV-1Kfn6hbr-9" value="" style="endArrow=classic;html=1;rounded=0;" edge="1" parent="1">
          <mxGeometry width="50" height="50" relative="1" as="geometry">
            <mxPoint x="320" y="400" as="sourcePoint" />
            <mxPoint x="640" y="400" as="targetPoint" />
          </mxGeometry>
        </mxCell>
        <mxCell id="UIueMPQgcCV-1Kfn6hbr-10" value="" style="endArrow=classic;html=1;rounded=0;" edge="1" parent="1">
          <mxGeometry width="50" height="50" relative="1" as="geometry">
            <mxPoint x="480" y="440" as="sourcePoint" />
            <mxPoint x="480" y="200" as="targetPoint" />
          </mxGeometry>
        </mxCell>
        <mxCell id="UIueMPQgcCV-1Kfn6hbr-11" value="Vd" style="text;html=1;strokeColor=none;fillColor=none;align=center;verticalAlign=middle;whiteSpace=wrap;rounded=0;" vertex="1" parent="1">
          <mxGeometry x="580" y="400" width="60" height="30" as="geometry" />
        </mxCell>
        <mxCell id="UIueMPQgcCV-1Kfn6hbr-12" value="I" style="text;html=1;strokeColor=none;fillColor=none;align=center;verticalAlign=middle;whiteSpace=wrap;rounded=0;" vertex="1" parent="1">
          <mxGeometry x="460" y="200" width="20" height="30" as="geometry" />
        </mxCell>
        <mxCell id="UIueMPQgcCV-1Kfn6hbr-13" value="" style="endArrow=none;html=1;rounded=0;strokeColor=#FF0000;strokeWidth=5;" edge="1" parent="1">
          <mxGeometry width="50" height="50" relative="1" as="geometry">
            <mxPoint x="360" y="400" as="sourcePoint" />
            <mxPoint x="520" y="240" as="targetPoint" />
            <Array as="points">
              <mxPoint x="520" y="400" />
            </Array>
          </mxGeometry>
        </mxCell>
        <mxCell id="UIueMPQgcCV-1Kfn6hbr-15" value="Ideal Diode - With Threshold" style="text;html=1;strokeColor=none;fillColor=none;align=center;verticalAlign=middle;whiteSpace=wrap;rounded=0;" vertex="1" parent="1">
          <mxGeometry x="360" y="440" width="240" height="30" as="geometry" />
        </mxCell>
        <mxCell id="UIueMPQgcCV-1Kfn6hbr-16" value="Vth" style="text;html=1;strokeColor=none;fillColor=none;align=center;verticalAlign=middle;whiteSpace=wrap;rounded=0;" vertex="1" parent="1">
          <mxGeometry x="490" y="400" width="60" height="30" as="geometry" />
        </mxCell>
      </root>
    </mxGraphModel>
  </diagram>
  <diagram id="TxwIcmy6KY9Y5bJznrbS" name="diode_r_schematic">
    <mxGraphModel dx="637" dy="587" grid="1" gridSize="10" guides="1" tooltips="1" connect="1" arrows="1" fold="1" page="1" pageScale="1" pageWidth="850" pageHeight="1100" math="0" shadow="0">
      <root>
        <mxCell id="0" />
        <mxCell id="1" parent="0" />
        <mxCell id="q1waBzWTObPHyqbR4p8b-1" value="" style="pointerEvents=1;fillColor=strokeColor;verticalLabelPosition=bottom;shadow=0;dashed=0;align=center;html=1;verticalAlign=top;shape=mxgraph.electrical.diodes.diode;rotation=0;" vertex="1" parent="1">
          <mxGeometry x="340" y="430" width="100" height="60" as="geometry" />
        </mxCell>
        <mxCell id="q1waBzWTObPHyqbR4p8b-2" value="" style="pointerEvents=1;verticalLabelPosition=bottom;shadow=0;dashed=0;align=center;html=1;verticalAlign=top;shape=mxgraph.electrical.resistors.resistor_2;rotation=-90;" vertex="1" parent="1">
          <mxGeometry x="420" y="500" width="100" height="20" as="geometry" />
        </mxCell>
        <mxCell id="q1waBzWTObPHyqbR4p8b-3" value="" style="endArrow=none;html=1;rounded=0;exitX=1;exitY=0.5;exitDx=0;exitDy=0;exitPerimeter=0;" edge="1" parent="1" source="q1waBzWTObPHyqbR4p8b-1">
          <mxGeometry width="50" height="50" relative="1" as="geometry">
            <mxPoint x="480" y="480" as="sourcePoint" />
            <mxPoint x="520" y="460" as="targetPoint" />
          </mxGeometry>
        </mxCell>
        <mxCell id="q1waBzWTObPHyqbR4p8b-4" value="" style="endArrow=none;html=1;rounded=0;" edge="1" parent="1">
          <mxGeometry width="50" height="50" relative="1" as="geometry">
            <mxPoint x="300" y="560" as="sourcePoint" />
            <mxPoint x="520" y="560" as="targetPoint" />
          </mxGeometry>
        </mxCell>
        <mxCell id="q1waBzWTObPHyqbR4p8b-6" value="" style="endArrow=none;html=1;rounded=0;" edge="1" parent="1">
          <mxGeometry width="50" height="50" relative="1" as="geometry">
            <mxPoint x="300" y="460" as="sourcePoint" />
            <mxPoint x="340" y="459.71" as="targetPoint" />
          </mxGeometry>
        </mxCell>
        <mxCell id="q1waBzWTObPHyqbR4p8b-7" value="Vd" style="text;html=1;strokeColor=none;fillColor=none;align=center;verticalAlign=middle;whiteSpace=wrap;rounded=0;" vertex="1" parent="1">
          <mxGeometry x="360" y="400" width="60" height="30" as="geometry" />
        </mxCell>
        <mxCell id="q1waBzWTObPHyqbR4p8b-8" value="Vr" style="text;html=1;strokeColor=none;fillColor=none;align=center;verticalAlign=middle;whiteSpace=wrap;rounded=0;" vertex="1" parent="1">
          <mxGeometry x="470" y="495" width="60" height="30" as="geometry" />
        </mxCell>
        <mxCell id="q1waBzWTObPHyqbR4p8b-9" value="Vin" style="text;html=1;strokeColor=none;fillColor=none;align=center;verticalAlign=middle;whiteSpace=wrap;rounded=0;" vertex="1" parent="1">
          <mxGeometry x="260" y="490" width="60" height="30" as="geometry" />
        </mxCell>
      </root>
    </mxGraphModel>
  </diagram>
</mxfile>
